<mxfile host="app.diagrams.net" modified="2020-09-10T14:13:52.152Z" agent="5.0 (Windows NT 10.0; Win64; x64) AppleWebKit/537.36 (KHTML, like Gecko) Chrome/85.0.4183.83 Safari/537.36" etag="DObTb0cU4wKCYYH0KMpi" version="13.6.9" type="github">
  <diagram id="C5RBs43oDa-KdzZeNtuy" name="Page-1">
    <mxGraphModel dx="868" dy="460" grid="1" gridSize="10" guides="1" tooltips="1" connect="1" arrows="1" fold="1" page="1" pageScale="1" pageWidth="827" pageHeight="1169" math="0" shadow="0">
      <root>
        <mxCell id="WIyWlLk6GJQsqaUBKTNV-0" />
        <mxCell id="WIyWlLk6GJQsqaUBKTNV-1" parent="WIyWlLk6GJQsqaUBKTNV-0" />
        <mxCell id="HDI58LDTNux9zSKTDbZI-8" value="" style="edgeStyle=orthogonalEdgeStyle;rounded=0;orthogonalLoop=1;jettySize=auto;html=1;" edge="1" parent="WIyWlLk6GJQsqaUBKTNV-1" source="HDI58LDTNux9zSKTDbZI-0" target="HDI58LDTNux9zSKTDbZI-1">
          <mxGeometry relative="1" as="geometry" />
        </mxCell>
        <mxCell id="HDI58LDTNux9zSKTDbZI-0" value="Start" style="strokeWidth=2;html=1;shape=mxgraph.flowchart.start_1;whiteSpace=wrap;" vertex="1" parent="WIyWlLk6GJQsqaUBKTNV-1">
          <mxGeometry x="110" y="50" width="100" height="60" as="geometry" />
        </mxCell>
        <mxCell id="HDI58LDTNux9zSKTDbZI-3" value="" style="edgeStyle=orthogonalEdgeStyle;rounded=0;orthogonalLoop=1;jettySize=auto;html=1;" edge="1" parent="WIyWlLk6GJQsqaUBKTNV-1" source="HDI58LDTNux9zSKTDbZI-1" target="HDI58LDTNux9zSKTDbZI-2">
          <mxGeometry relative="1" as="geometry" />
        </mxCell>
        <mxCell id="HDI58LDTNux9zSKTDbZI-1" value="Insert Card" style="shape=parallelogram;html=1;strokeWidth=2;perimeter=parallelogramPerimeter;whiteSpace=wrap;rounded=1;arcSize=12;size=0.23;" vertex="1" parent="WIyWlLk6GJQsqaUBKTNV-1">
          <mxGeometry x="75" y="150" width="170" height="50" as="geometry" />
        </mxCell>
        <mxCell id="HDI58LDTNux9zSKTDbZI-7" value="No" style="edgeStyle=orthogonalEdgeStyle;rounded=0;orthogonalLoop=1;jettySize=auto;html=1;" edge="1" parent="WIyWlLk6GJQsqaUBKTNV-1" source="HDI58LDTNux9zSKTDbZI-2" target="HDI58LDTNux9zSKTDbZI-6">
          <mxGeometry relative="1" as="geometry" />
        </mxCell>
        <mxCell id="HDI58LDTNux9zSKTDbZI-12" value="Yes" style="edgeStyle=orthogonalEdgeStyle;rounded=0;orthogonalLoop=1;jettySize=auto;html=1;" edge="1" parent="WIyWlLk6GJQsqaUBKTNV-1" source="HDI58LDTNux9zSKTDbZI-2" target="HDI58LDTNux9zSKTDbZI-11">
          <mxGeometry relative="1" as="geometry" />
        </mxCell>
        <mxCell id="HDI58LDTNux9zSKTDbZI-2" value="card valid?" style="strokeWidth=2;html=1;shape=mxgraph.flowchart.decision;whiteSpace=wrap;" vertex="1" parent="WIyWlLk6GJQsqaUBKTNV-1">
          <mxGeometry x="300" y="135" width="100" height="80" as="geometry" />
        </mxCell>
        <mxCell id="HDI58LDTNux9zSKTDbZI-6" value="Stop" style="strokeWidth=2;html=1;shape=mxgraph.flowchart.start_2;whiteSpace=wrap;" vertex="1" parent="WIyWlLk6GJQsqaUBKTNV-1">
          <mxGeometry x="790" y="142.5" width="110" height="65" as="geometry" />
        </mxCell>
        <mxCell id="HDI58LDTNux9zSKTDbZI-14" value="" style="edgeStyle=orthogonalEdgeStyle;rounded=0;orthogonalLoop=1;jettySize=auto;html=1;" edge="1" parent="WIyWlLk6GJQsqaUBKTNV-1" source="HDI58LDTNux9zSKTDbZI-11" target="HDI58LDTNux9zSKTDbZI-13">
          <mxGeometry relative="1" as="geometry" />
        </mxCell>
        <mxCell id="HDI58LDTNux9zSKTDbZI-11" value="Enter Pin" style="shape=parallelogram;html=1;strokeWidth=2;perimeter=parallelogramPerimeter;whiteSpace=wrap;rounded=1;arcSize=12;size=0.23;" vertex="1" parent="WIyWlLk6GJQsqaUBKTNV-1">
          <mxGeometry x="280" y="270" width="140" height="50" as="geometry" />
        </mxCell>
        <mxCell id="HDI58LDTNux9zSKTDbZI-17" value="No" style="edgeStyle=orthogonalEdgeStyle;rounded=0;orthogonalLoop=1;jettySize=auto;html=1;" edge="1" parent="WIyWlLk6GJQsqaUBKTNV-1" source="HDI58LDTNux9zSKTDbZI-13" target="HDI58LDTNux9zSKTDbZI-16">
          <mxGeometry relative="1" as="geometry" />
        </mxCell>
        <mxCell id="HDI58LDTNux9zSKTDbZI-20" value="Yes" style="edgeStyle=orthogonalEdgeStyle;rounded=0;orthogonalLoop=1;jettySize=auto;html=1;" edge="1" parent="WIyWlLk6GJQsqaUBKTNV-1" source="HDI58LDTNux9zSKTDbZI-13" target="HDI58LDTNux9zSKTDbZI-19">
          <mxGeometry relative="1" as="geometry">
            <Array as="points">
              <mxPoint x="550" y="350" />
              <mxPoint x="310" y="350" />
            </Array>
          </mxGeometry>
        </mxCell>
        <mxCell id="HDI58LDTNux9zSKTDbZI-13" value="pin valid?" style="rhombus;whiteSpace=wrap;html=1;rounded=1;strokeWidth=2;arcSize=12;" vertex="1" parent="WIyWlLk6GJQsqaUBKTNV-1">
          <mxGeometry x="510" y="255" width="80" height="80" as="geometry" />
        </mxCell>
        <mxCell id="HDI58LDTNux9zSKTDbZI-18" style="edgeStyle=orthogonalEdgeStyle;rounded=0;orthogonalLoop=1;jettySize=auto;html=1;entryX=0.145;entryY=0.855;entryDx=0;entryDy=0;entryPerimeter=0;" edge="1" parent="WIyWlLk6GJQsqaUBKTNV-1" source="HDI58LDTNux9zSKTDbZI-16" target="HDI58LDTNux9zSKTDbZI-6">
          <mxGeometry relative="1" as="geometry">
            <Array as="points">
              <mxPoint x="806" y="295" />
            </Array>
          </mxGeometry>
        </mxCell>
        <mxCell id="HDI58LDTNux9zSKTDbZI-16" value="Invalid pin" style="strokeWidth=2;html=1;shape=mxgraph.flowchart.display;whiteSpace=wrap;" vertex="1" parent="WIyWlLk6GJQsqaUBKTNV-1">
          <mxGeometry x="680" y="265" width="90" height="60" as="geometry" />
        </mxCell>
        <mxCell id="HDI58LDTNux9zSKTDbZI-22" value="" style="edgeStyle=orthogonalEdgeStyle;rounded=0;orthogonalLoop=1;jettySize=auto;html=1;entryX=0;entryY=0.5;entryDx=0;entryDy=0;entryPerimeter=0;" edge="1" parent="WIyWlLk6GJQsqaUBKTNV-1" source="HDI58LDTNux9zSKTDbZI-19" target="HDI58LDTNux9zSKTDbZI-26">
          <mxGeometry relative="1" as="geometry" />
        </mxCell>
        <mxCell id="HDI58LDTNux9zSKTDbZI-19" value="Enter Amount" style="shape=parallelogram;perimeter=parallelogramPerimeter;whiteSpace=wrap;html=1;fixedSize=1;rounded=1;strokeWidth=2;arcSize=12;" vertex="1" parent="WIyWlLk6GJQsqaUBKTNV-1">
          <mxGeometry x="230" y="410" width="140" height="45" as="geometry" />
        </mxCell>
        <mxCell id="HDI58LDTNux9zSKTDbZI-24" value="No" style="edgeStyle=orthogonalEdgeStyle;rounded=0;orthogonalLoop=1;jettySize=auto;html=1;" edge="1" parent="WIyWlLk6GJQsqaUBKTNV-1" source="HDI58LDTNux9zSKTDbZI-21" target="HDI58LDTNux9zSKTDbZI-23">
          <mxGeometry relative="1" as="geometry" />
        </mxCell>
        <mxCell id="HDI58LDTNux9zSKTDbZI-32" value="" style="edgeStyle=orthogonalEdgeStyle;rounded=0;orthogonalLoop=1;jettySize=auto;html=1;" edge="1" parent="WIyWlLk6GJQsqaUBKTNV-1" source="HDI58LDTNux9zSKTDbZI-21" target="HDI58LDTNux9zSKTDbZI-31">
          <mxGeometry relative="1" as="geometry" />
        </mxCell>
        <mxCell id="HDI58LDTNux9zSKTDbZI-21" value="Sufficient &lt;br&gt;fund avaliable?" style="rhombus;whiteSpace=wrap;html=1;rounded=1;strokeWidth=2;arcSize=12;" vertex="1" parent="WIyWlLk6GJQsqaUBKTNV-1">
          <mxGeometry x="485" y="377.5" width="105" height="110" as="geometry" />
        </mxCell>
        <mxCell id="HDI58LDTNux9zSKTDbZI-25" value="" style="edgeStyle=orthogonalEdgeStyle;rounded=0;orthogonalLoop=1;jettySize=auto;html=1;" edge="1" parent="WIyWlLk6GJQsqaUBKTNV-1" source="HDI58LDTNux9zSKTDbZI-23">
          <mxGeometry relative="1" as="geometry">
            <mxPoint x="845" y="206" as="targetPoint" />
            <Array as="points">
              <mxPoint x="845" y="433" />
              <mxPoint x="845" y="206" />
            </Array>
          </mxGeometry>
        </mxCell>
        <mxCell id="HDI58LDTNux9zSKTDbZI-23" value="Unsufficient&lt;br&gt;&amp;nbsp;Fund" style="strokeWidth=2;html=1;shape=mxgraph.flowchart.display;whiteSpace=wrap;" vertex="1" parent="WIyWlLk6GJQsqaUBKTNV-1">
          <mxGeometry x="680" y="402.5" width="100" height="60" as="geometry" />
        </mxCell>
        <mxCell id="HDI58LDTNux9zSKTDbZI-27" value="" style="edgeStyle=orthogonalEdgeStyle;rounded=0;orthogonalLoop=1;jettySize=auto;html=1;" edge="1" parent="WIyWlLk6GJQsqaUBKTNV-1" source="HDI58LDTNux9zSKTDbZI-26" target="HDI58LDTNux9zSKTDbZI-21">
          <mxGeometry relative="1" as="geometry" />
        </mxCell>
        <mxCell id="HDI58LDTNux9zSKTDbZI-26" value="Get Data" style="strokeWidth=2;html=1;shape=mxgraph.flowchart.database;whiteSpace=wrap;" vertex="1" parent="WIyWlLk6GJQsqaUBKTNV-1">
          <mxGeometry x="390" y="402.5" width="60" height="60" as="geometry" />
        </mxCell>
        <mxCell id="HDI58LDTNux9zSKTDbZI-33" value="" style="edgeStyle=orthogonalEdgeStyle;rounded=0;orthogonalLoop=1;jettySize=auto;html=1;" edge="1" parent="WIyWlLk6GJQsqaUBKTNV-1" source="HDI58LDTNux9zSKTDbZI-31" target="HDI58LDTNux9zSKTDbZI-36">
          <mxGeometry relative="1" as="geometry">
            <mxPoint x="660" y="560" as="targetPoint" />
            <Array as="points">
              <mxPoint x="640" y="560" />
              <mxPoint x="640" y="560" />
            </Array>
          </mxGeometry>
        </mxCell>
        <mxCell id="HDI58LDTNux9zSKTDbZI-31" value="Withdraw amount" style="rounded=1;whiteSpace=wrap;html=1;absoluteArcSize=1;arcSize=14;strokeWidth=2;" vertex="1" parent="WIyWlLk6GJQsqaUBKTNV-1">
          <mxGeometry x="482.5" y="530" width="110" height="60" as="geometry" />
        </mxCell>
        <mxCell id="HDI58LDTNux9zSKTDbZI-37" style="edgeStyle=orthogonalEdgeStyle;rounded=0;orthogonalLoop=1;jettySize=auto;html=1;entryX=0.682;entryY=1.023;entryDx=0;entryDy=0;entryPerimeter=0;" edge="1" parent="WIyWlLk6GJQsqaUBKTNV-1" source="HDI58LDTNux9zSKTDbZI-36" target="HDI58LDTNux9zSKTDbZI-6">
          <mxGeometry relative="1" as="geometry">
            <mxPoint x="890" y="220" as="targetPoint" />
            <Array as="points">
              <mxPoint x="865" y="550" />
            </Array>
          </mxGeometry>
        </mxCell>
        <mxCell id="HDI58LDTNux9zSKTDbZI-36" value="Withdraw Successful" style="strokeWidth=2;html=1;shape=mxgraph.flowchart.display;whiteSpace=wrap;" vertex="1" parent="WIyWlLk6GJQsqaUBKTNV-1">
          <mxGeometry x="675" y="520" width="100" height="60" as="geometry" />
        </mxCell>
      </root>
    </mxGraphModel>
  </diagram>
</mxfile>
